Patient4_TMGait_0pt6_01_left_36_EMG.mot
version=1
nRows=36
nColumns=33
inDegrees=no
endheader
time	1LAddLong	2LGlutMax	3LGlutMed	4LIliopsoas	5LSemiMemb	6LBicFemLong	7LRecFem	8LVastMed	9LVastLat	10LGasMed	11LTibAnt	12lTibPost	13LPeroneusLong	14LSol	15LExtDigLong	16LFlexDigLong	17RAddLong	18RGlutMax	19RGlutMed	20RIliopsoas	21RSemiMemb	22RBicFemLong	23RRecFem	24RVastMed	25RVastLat	26RGasMed	27RTibAnt	28RTibPost	29RPeroneusLong	30RSol	31RExtDigLong	32RFlexDigLong
43.82	0.003357	0.035858	-0.057373	0.002747	-0.022278	-0.10941	0.031128	0.002594	0.23514	-0.010529	0.030823	-0.006561	-0.10162	0.014648	0.003357	0.011902	-0.005188	-0.056152	-0.36453	0.13962	-0.011292	0.014343	0.23804	0.12695	0.070801	0.029297	-0.24399	-0.016785	2.1075	0.016174	-0.000763	-0.00412
43.821	0.010071	0.02182	-0.063019	0.018921	-0.005951	-0.090942	0.041504	0.00824	0.23438	-0.0383	0.040436	-0.00412	-0.2066	-0.011597	-0.006104	0.007782	0.006409	-0.089417	-0.29068	0.000458	-0.019531	-0.10269	0.089569	-0.003357	0.06134	0.022736	-0.003815	-0.021667	1.3551	-0.003662	-0.001831	-0.014496
43.822	0.000305	0.003662	-0.069885	0.019989	0.025482	-0.1149	0.05188	0.012054	0.22369	-0.037689	0.015869	-0.005035	0.04715	-0.006714	-0.020447	0.012207	-0.001831	-0.13626	-0.34378	-0.03891	0.014801	-0.29572	-0.0737	-0.001221	0.081482	-0.005035	-0.089417	-0.019836	0.93399	-0.06134	-0.005188	-0.010223
43.823	0.009003	-0.059357	-0.059662	0.024414	0.011444	-0.10025	0.031128	0.00885	0.2095	-0.042419	-0.011749	-0.009613	0.15121	-0.042572	-0.032654	0.001526	-0.006866	-0.18433	-0.11993	-0.059509	0.012512	-0.27161	-0.10895	0.057831	0.10727	-0.016479	-0.082092	-0.021362	2.0512	-0.091553	-0.000458	-0.007782
43.824	0.004578	-0.041962	-0.039673	0.024719	-0.010681	-0.15427	0.023499	0.011139	0.20767	-0.043182	-0.001373	-0.001984	0.22751	-0.19211	-0.071106	-0.007172	-0.010223	-0.14023	-0.043793	-0.046387	-0.006104	-0.22736	0.10941	0.052185	0.12131	-0.004425	-0.11047	-0.028381	0.38666	-0.042419	-0.003052	-0.003204
43.825	0.011444	-0.033722	-0.046844	0.022736	-0.034637	-0.14435	0.007782	0.006714	0.20309	-0.044403	0.027618	-0.00412	0.14908	-0.14526	-0.041199	0.002289	0.003204	-0.071259	0.38345	-0.020447	-0.007782	-0.18509	0.20508	0.112	0.12894	-0.041656	-0.013123	-0.028229	-0.6926	0.00061	-0.003662	-0.007629
43.826	0.013123	-0.065155	-0.061035	0.018616	-0.012817	-0.15823	-0.001068	0.005646	0.20569	-0.012665	0.005493	-0.006866	0.11856	0.001221	-0.051117	-0.003967	0.006256	-0.12497	0.16296	0.027924	-0.030365	-0.15854	0.29465	0.045319	0.057068	-0.06073	0.14526	-0.037231	0.54062	-0.099792	-0.002289	-0.016174
43.827	0.020905	-0.064697	-0.078278	0.002289	0.00412	-0.1532	-0.001068	-0.000153	0.19134	-0.026855	-0.006256	0.006561	0.10925	0.030975	0.025177	0.007324	0.004272	-0.13275	-0.1503	0.026855	-0.032654	-0.1207	0.25436	-0.046692	0.001984	-0.047302	-0.11673	-0.009308	0.6839	-0.13504	-0.003204	-0.009613
43.828	0.001526	-0.077667	-0.1004	0.007477	0.008087	-0.1564	0.000305	0.002594	0.18982	-0.037384	-0.003967	-0.003662	0.029755	0.038757	0.077515	-0.001221	-0.005341	-0.09079	-0.33173	0.027313	-0.032349	-0.077515	0.16922	-0.02594	-0.007477	-0.011902	-0.055237	0.011292	-0.62653	0.18402	-0.002441	-0.010376
43.829	0.042419	-0.080261	-0.13412	0.017242	-0.003967	-0.13702	-0.00351	0.00473	0.19119	-0.04364	0.020447	0.007019	0.033569	-0.05722	0.055237	-0.001068	-0.016937	-0.12955	-0.2977	0.051727	-0.03479	-0.058746	-0.076294	-0.078888	-0.028381	0.073242	-0.26596	-0.054474	1.4839	0.15701	-0.003967	-0.014343
43.83	0.037079	-0.088806	-0.14175	0.009308	-0.007935	-0.1294	-0.013275	0.005188	0.17883	-0.056458	0.074768	0.001221	0.079498	-0.057068	0.074768	-0.004578	-0.031738	-0.15961	0.036926	0.11185	-0.010376	-0.12009	-0.13092	-0.042267	0.049438	0.033417	-0.21835	0.021667	-0.33524	-0.09552	-0.001831	-0.012817
43.831	-0.00412	-0.081635	-0.1326	0.019226	-0.007477	-0.11414	-0.028992	0.00412	0.17761	-0.045471	0.056458	-0.007324	0.11169	0.053558	0.004272	0.005035	-0.014343	-0.077362	0.13168	0.10193	-0.009766	-0.08194	0.062714	-0.017242	0.092926	0.048065	-0.094757	0.018463	-2.9749	-0.067596	-0.005188	-0.014343
43.832	0.009155	-0.04837	-0.084534	0.009766	0.019836	-0.14542	-0.008698	0.006866	0.17853	-0.034637	0.075836	-0.006866	0.075836	0.037537	-0.057068	-0.001221	0.002747	-0.011444	0.45593	0.027618	-0.021515	-0.07843	0.21149	-0.12024	0.022888	0.015411	-0.10315	-0.016327	-1.4981	-0.22583	-0.006714	-0.018921
43.833	0.008698	-0.069122	-0.046082	0.016479	0.018311	-0.097351	-0.027313	0.006866	0.16724	-0.030518	0.11337	-0.00061	0.05249	-0.022888	-0.098572	0.00473	0.014038	0.075989	1.2375	-0.13916	-0.032806	-0.21225	0.22308	0.006256	-0.004578	-0.024109	-0.17761	-0.016479	1.3127	-0.38605	-0.002289	-0.019226
43.834	0.00412	-0.058136	-0.015717	0.00946	0.009766	-0.081329	-0.024109	0.013275	0.15701	-0.051117	0.11581	-0.000763	0.10971	-0.010529	-0.086212	0.002441	0.017395	0.090179	0.93338	-0.02533	-0.041809	-0.26825	0.22919	0.07782	0.054474	-0.10849	-0.19867	-0.012054	1.58	-0.21515	-0.002899	-0.012207
43.835	0.006561	-0.07431	-0.024719	0.014038	-0.007477	-0.07782	-0.028687	0.007629	0.16388	-0.05661	-0.032654	-0.009918	0.10574	-0.0354	-0.074615	0.007935	0.023499	-0.035248	0.051117	0.12039	-0.057068	-0.1889	0.29984	0.10773	0.013123	-0.095673	-0.1149	0.020294	0.22125	0.44205	-0.003967	-0.016632
43.836	0.011597	-0.072327	0.051727	0.001678	-0.062561	-0.062714	-0.039825	0.007629	0.15656	-0.043793	-0.096741	-0.000153	0.040283	0.023499	0.042725	0.002899	0.018921	-0.011139	-0.74539	0.15717	-0.072479	-0.10117	0.25406	-0.011444	-0.057831	-0.092621	-0.05127	0.016479	-0.52078	0.50934	-0.001526	-0.003357
43.837	0.008698	-0.065155	0.052338	0.00946	-0.10071	-0.065155	-0.046539	0.002899	0.16419	-0.030975	-0.1004	0.000305	0.045776	0.029297	0.016022	0.005188	0.013275	-0.030518	-1.0979	0.14618	-0.071716	-0.10284	0.27039	-0.095215	-0.13001	-0.098267	0.017853	-0.003967	-0.83664	0.3302	-0.001984	-0.004272
43.838	0.006104	-0.082092	0.002441	0.002899	-0.016479	-0.070801	-0.043488	0.003357	0.16907	-0.018158	-0.076752	0.00351	0.058899	0.018921	-0.000305	0.005035	0.012207	-0.028381	-0.82001	0.097351	-0.050049	-0.04364	0.20187	-0.0737	-0.24185	-0.099182	0.094604	-0.033112	-0.93277	0.098114	-0.002899	-0.004578
43.839	0.007629	-0.080719	0.004425	0.008392	0.067444	-0.049286	-0.048981	0.013275	0.16113	-0.016479	-0.027313	-0.001221	0.10208	0.037384	0.028534	0.007324	-0.004578	-0.092773	-0.007019	0.032959	-0.019531	0.01358	0.019531	-0.069427	-0.22934	-0.084076	0.057678	-0.048981	-0.12222	-0.16235	-0.001373	-0.009155
43.84	0.003815	-0.065155	0.038147	0.00885	0.049591	-0.004578	-0.066681	0.00473	0.16235	-0.017395	0.026703	0	0.15991	0.020752	0.018616	0.000458	-0.001678	-0.13596	0.15884	-0.028229	0.000153	-0.027466	-0.17029	-0.17166	-0.10696	0.009918	0.067139	-0.063934	-0.10208	-0.49103	-0.002899	-0.00824
43.841	0.00061	-0.059204	0.009613	0.016479	-0.00885	-0.016174	-0.067902	0.00412	0.16815	-0.014954	0.011292	0.000305	0.16357	-0.006104	0.045929	-0.006866	-0.000458	-0.18127	-0.17258	-0.10956	0.012512	-0.10422	-0.31815	-0.17014	-0.082092	0.11749	0.11978	0.09491	-0.21164	-0.3978	-0.003357	-0.001526
43.842	0.016479	-0.045013	-0.013275	0.005035	-0.034485	-0.057068	-0.058594	0.00351	0.16983	-0.010986	0.030212	-0.009308	0.13779	-0.018463	-0.006866	-0.004425	0.016479	-0.11734	-0.20035	-0.21332	-0.030518	-0.12741	-0.31998	-0.21835	-0.055847	0.10407	0.17685	0.033569	-0.43152	-0.11368	0.000305	-0.003815
43.843	0.019379	-0.01297	0.034637	0.002747	-0.019684	-0.036316	-0.069885	0.005341	0.16235	-0.030365	0.022888	-0.008545	0.075073	-0.11963	-0.030975	0.001526	0.014038	-0.024261	-0.15915	-0.24994	-0.024261	-0.11276	-0.27008	-0.15259	0.005646	0.12604	0.22156	-0.046997	-1.0876	-0.20874	-0.002441	-0.004883
43.844	0.022888	-0.019531	0.010529	0.015106	0.00351	-0.069733	-0.059357	-0.00061	0.15808	-0.016785	0.014343	-0.014496	0.011902	0.033264	-0.012054	0.002441	0.006714	-0.006256	-0.12787	-0.18753	-0.009918	-0.071716	-0.34866	-0.20599	0.062256	0.054016	0.12924	0.094604	-0.14984	-0.43625	0.000763	-0.010071
43.845	0.020294	-0.032806	-0.03479	0.02121	0.032349	-0.051727	-0.053101	0.000458	0.16312	-0.025635	0.015869	-0.008545	0.049133	0.084534	0.042877	-0.008545	-0.004272	0.014954	0.046692	-0.091553	-0.003052	-0.079803	-0.22812	-0.11871	0.080566	0.044708	-0.10223	0.011902	0.35797	-0.35919	-0.00351	-0.01358
43.846	0.016327	-0.02243	-0.028839	0.013428	0.046997	-0.042419	-0.06546	0.000305	0.15595	-0.025482	0.014191	0.007935	0.058899	0.015869	0.075073	-0.014496	-0.003815	0.029755	0.014648	0.13825	-0.014648	-0.075226	-0.082397	0.19379	0.068817	-0.013885	0.08728	-0.032654	-0.005646	-0.23666	-0.002289	-0.016022
43.847	0.014648	-0.011292	-0.049133	0.009003	0.026093	-0.041809	-0.061951	-0.009308	0.15976	-0.021667	0.018768	-0.011749	0.000916	-0.27725	0.081329	-0.011444	0.000916	0.077515	0.31845	0.25314	-0.029602	-0.071716	-0.045013	0.13306	0.010223	-0.046997	0.097198	-0.032806	-0.58548	0.15686	-0.000916	-0.014648
43.848	0.002899	-0.0383	-0.063171	0.015259	0.011902	-0.053406	-0.075989	-0.000916	0.13962	0.005798	0.017395	-0.013123	-0.005798	-0.18951	0.1062	-0.014191	0.009918	0.045013	0.14358	0.17777	-0.023956	-0.053711	-0.11383	0.11231	0.036469	-0.07019	0.050812	-0.025024	-0.5246	0.56671	-0.003662	-0.010376
43.849	0.014954	-0.011749	-0.063171	0.011597	0.016327	-0.047607	-0.068512	0.003815	0.1387	0.013428	0.007629	-0.019989	0.12177	0.071716	0.099487	-0.01236	0.000916	0.095062	0.027924	0.076141	-0.02182	-0.005341	-0.22873	0.037231	0.038605	-0.085144	0.11566	-0.030365	-0.4306	0.36499	-0.003815	-0.010986
43.85	0.010223	0.009613	-0.069427	0.017853	0.021515	-0.024567	-0.073395	-0.00412	0.13763	0.043182	0.015869	-0.008698	0.10986	0.18082	0.07019	-0.017395	0.007477	0.044098	0.078278	0.022278	-0.024109	-0.040131	-0.22797	0.013123	0.034485	-0.11841	0.20401	-0.091248	-0.39856	0.13794	-0.006714	-0.010529
43.851	0.016785	-0.023956	-0.081482	0.017242	0.012817	-0.04303	-0.070648	-0.002594	0.12238	0.057831	0.016479	-0.004272	0.12863	0.10193	0.071106	-0.011292	0.012665	0.14145	0.18753	0.037079	-0.019989	-0.09613	-0.16068	-0.026855	0.044861	-0.23636	-0.072937	-0.24612	0.087128	0.25146	-0.001526	-0.012207
43.852	0.018616	-0.015564	-0.083618	0.017853	0.005341	-0.012207	-0.064697	-0.005951	0.12314	-0.089569	0.00946	0.010223	0.027008	0.002747	0.067902	-0.02121	0.007019	0.16739	0.46631	0.010681	-0.018921	-0.13672	-0.15671	-0.028992	0.040436	-0.1741	-0.13657	-0.14114	-0.031281	-0.23758	-0.001373	0.000916
43.853	0.002441	-0.029144	-0.090179	-0.000763	-0.045319	-0.022278	-0.057068	-0.002594	0.11734	-0.17838	0.012817	-0.006409	0.021973	-0.112	0.026398	-0.018616	-0.001526	0.11871	0.36484	0.092468	-0.018311	-0.18341	-0.091095	0.001068	0.025787	-0.11337	-0.10239	-0.5986	-0.32501	-0.42984	-0.007019	-0.002441
43.854	0.006104	-0.018768	-0.071869	-0.002289	-0.052338	-0.058136	-0.062256	-0.005035	0.11261	-0.10696	0.017242	-0.006104	0.045013	-0.26428	-0.023193	-0.023041	-0.006256	0.04715	0.41321	0.004272	-0.016785	-0.20966	-0.000305	-0.007324	0.004272	-0.016327	-0.040894	0.14572	0.001984	-0.20783	-0.009155	-0.014954
43.855	0.006561	-0.044098	-0.070801	-0.00412	0.022736	-0.083313	-0.057373	-0.005951	0.12161	-0.079346	0.02533	0.006409	-0.025482	-0.27451	-0.041809	-0.023499	-0.002594	0.097504	0.68146	0.028839	0.003204	-0.15274	0.20905	0.047607	-0.018158	0.090485	0.009918	0.62424	-0.10849	0.26138	-0.00473	-0.009613
